<svg width="284" height="284" viewBox="0 0 284 284" fill="none" xmlns="http://www.w3.org/2000/svg">
<rect x="16" y="16" width="252" height="252" stroke="black" stroke-width="32"/>
<path fill-rule="evenodd" clip-rule="evenodd" d="M142.5 179C162.658 179 179 162.658 179 142.5C179 122.342 162.658 106 142.5 106C122.342 106 106 122.342 106 142.5C106 162.658 122.342 179 142.5 179ZM142.5 211C180.332 211 211 180.332 211 142.5C211 104.668 180.332 74 142.5 74C104.668 74 74 104.668 74 142.5C74 180.332 104.668 211 142.5 211Z" fill="black"/>
<circle cx="215" cy="69" r="16" fill="black"/>
</svg>
