<svg width="1503" height="1214" viewBox="0 0 1503 1214" fill="none" xmlns="http://www.w3.org/2000/svg">
<path d="M1185.64 681.184C1214.84 674.042 1240.4 678.884 1258.42 696.026C1275.88 712.641 1283.32 738.098 1282.99 766.2C1282.33 822.496 1250.79 897.455 1185.77 967L1163.89 946.589C1225.53 880.656 1252.51 812.51 1253.05 765.852C1253.32 742.478 1247.03 726.494 1237.77 717.679C1229.06 709.392 1214.92 704.813 1192.76 710.232C1177.61 713.939 1159.33 725.709 1144.71 742.513C1144.13 743.175 1143.56 743.841 1143 744.512C1143.26 744.508 1143.51 744.507 1143.76 744.507C1172.91 744.507 1196.52 768.126 1196.52 797.239C1196.52 826.351 1172.91 849.971 1143.76 849.971C1115.24 849.971 1091 829.312 1091 797.239C1091 769.498 1104.54 743.078 1122.11 722.893C1139.65 702.737 1162.98 686.727 1185.64 681.184Z" fill="black"/>
<path d="M1359 752.5C1359 762.165 1350.94 770 1341 770C1331.06 770 1323 762.165 1323 752.5C1323 742.835 1331.06 735 1341 735C1350.94 735 1359 742.835 1359 752.5Z" fill="black"/>
<path d="M1341 828C1350.94 828 1359 819.941 1359 810C1359 800.059 1350.94 792 1341 792C1331.06 792 1323 800.059 1323 810C1323 819.941 1331.06 828 1341 828Z" fill="black"/>
<path d="M247.265 791.334L275.197 830.137L250.917 847.615L222.985 808.811L247.265 791.334Z" fill="black"/>
<path fill-rule="evenodd" clip-rule="evenodd" d="M184.13 729.947C193.125 712.472 206.253 697.354 222.342 686.007C239.016 674.246 258.879 666.523 280.593 664.398C302.308 662.273 323.29 666 341.928 674.305C380.592 691.534 409.208 728.516 413.632 773.722C418.055 818.928 397.151 860.754 362.56 885.152C349.142 894.616 333.66 901.465 316.809 904.886L298.88 979.541L269.79 972.554L285.497 907.156C270.529 906.316 256.164 902.731 242.973 896.853C204.309 879.624 175.693 842.643 171.27 797.437C170.011 784.575 170.803 771.988 173.377 759.997L110.32 760.767L109.954 730.853L184.13 729.947ZM239.585 710.454C252.136 701.601 267.083 695.779 283.507 694.172C299.93 692.565 315.722 695.38 329.751 701.631C358.987 714.659 380.524 742.57 383.858 776.635C387.191 810.7 371.473 842.256 345.317 860.704C339.043 865.13 332.17 868.798 324.813 871.56L337.323 819.471L308.234 812.484L292.636 877.43C279.37 877.475 266.666 874.659 255.15 869.527C225.914 856.499 204.377 828.589 201.044 794.523C199.859 782.413 201.082 770.619 204.326 759.619L270.883 758.806L270.518 728.892L219.703 729.513C225.317 722.233 232.013 715.794 239.585 710.454Z" fill="black"/>
<path fill-rule="evenodd" clip-rule="evenodd" d="M750.711 798C797.626 797.998 841.797 786.745 878.624 767.186C941.556 733.763 985 675.242 985 607C985 538.758 941.556 480.237 878.624 446.814C841.81 427.262 797.937 416 751 416C704.063 416 660.19 427.262 623.376 446.814C560.444 480.237 517 538.758 517 607C517 675.242 560.444 733.763 623.376 767.186C660.175 786.73 703.746 798 750.701 798H750.711ZM750.701 768.086C792.514 768.086 830.994 741.074 854.12 696.987C867.542 671.401 875.481 640.479 875.481 607.006C875.481 573.534 867.542 542.612 854.12 517.026C830.994 472.939 792.513 445.927 750.701 445.927C708.888 445.927 670.408 472.939 647.281 517.026C633.859 542.612 625.921 573.534 625.921 607.006C625.921 640.479 633.859 671.401 647.281 696.987C670.408 741.074 708.888 768.086 750.701 768.086Z" fill="black"/>
<path fill-rule="evenodd" clip-rule="evenodd" d="M751 0C593.635 0 447.396 39.0987 326.528 106.111C130.384 214.858 0 397.944 0 607C0 816.056 130.384 999.142 326.528 1107.89C447.396 1174.9 593.635 1214 751 1214C908.365 1214 1054.6 1174.9 1175.47 1107.89C1367.4 1001.48 1496.37 823.891 1501.82 620.441L1503 620.442V607.036C1503 481.073 1455.27 364.291 1373.83 267.615C1324.63 208.736 1263.07 157.314 1192.36 115.754L1193 115.027L1176.77 106.042C1136.34 83.6539 1093.08 64.3867 1047.51 48.6551C1005.68 34.2099 961.902 22.7434 916.594 14.579C898.868 11.3849 880.908 8.69605 862.737 6.53199C844.685 4.3821 826.426 2.7501 807.984 1.65508C789.508 0.558087 770.848 0 752.029 0H751ZM1471.9 620.425L1061.62 620.201C1056.88 698.775 1008.48 766.864 937.743 810.194L1171.56 1075.74C1350.28 972.823 1466.56 806.982 1471.9 620.425ZM911.866 389.53L994.198 296.182L1027.66 258.058V73.9533C995.837 63.3544 962.853 54.5261 928.9 47.6257L928.9 299.868H875.929V374.614C888.339 378.961 900.34 383.949 911.866 389.53ZM439.382 620.202C444.146 699.264 493.119 767.71 564.578 810.999L331.486 1076.34C152.178 973.471 35.4477 807.347 30.1003 620.426L439.382 620.202ZM1057.59 84.5685C1088.1 96.066 1117.44 109.223 1145.42 123.892L1057.59 223.962V84.5685ZM724.343 30.3035C733.189 30.0461 742.075 29.9162 751 29.9162C764.806 29.9162 778.52 30.2269 792.132 30.8399L792.132 299.868H846.001V365.592C834.057 362.552 821.807 360.083 809.3 358.223C794.832 356.071 780.019 354.732 764.938 354.267C760.152 354.09 755.338 354 750.5 354C719.012 354 688.571 357.797 659.852 364.881V299.868H713.722V30.6859C717.256 30.538 720.796 30.4105 724.343 30.3035ZM629.925 373.653V299.868H575.158V47.3535C555.701 51.2756 536.56 55.8294 517.772 60.9855C504.088 64.7408 490.591 68.8156 477.295 73.1985V258.028L592.847 388.753C604.732 383.076 617.114 378.025 629.925 373.653ZM750.5 386C692.922 386 639.585 399.823 595.301 423.343C519.161 463.782 471 531.959 471 607.5C471 683.041 519.161 751.218 595.301 791.657C639.585 815.177 692.922 829 750.5 829C808.078 829 861.415 815.177 905.699 791.657C981.839 751.218 1030 683.041 1030 607.5C1030 531.959 981.839 463.782 905.699 423.343C861.415 399.823 808.078 386 750.5 386ZM447.368 83.7081V224.171L358.239 123.34C386.617 108.529 416.389 95.2667 447.368 83.7081Z" fill="black"/>
</svg>
