<svg width="1447" height="565" viewBox="0 0 1447 565" fill="none" xmlns="http://www.w3.org/2000/svg">
<path fill-rule="evenodd" clip-rule="evenodd" d="M137.139 319.722C140.371 315.601 145.64 313.638 150.781 314.64L363.456 356.095L358.12 383.475L242.264 360.892C226.293 373.757 208.85 391.415 198.091 403.022C204.222 416.214 209.917 428.439 214.432 438.08C217.162 443.912 219.453 448.781 221.144 452.342C221.991 454.125 222.677 455.557 223.187 456.607C223.598 457.454 223.816 457.889 223.895 458.047C223.928 458.112 223.937 458.13 223.926 458.11L199.51 471.6C197.787 468.481 183.862 438.615 168.895 406.384C157.074 380.927 144.273 353.27 135.451 334.181C133.254 329.427 133.906 323.842 137.139 319.722ZM185.454 375.796C191.912 369.106 199.546 361.511 207.545 354.125L172.225 347.24C176.424 356.312 180.923 366.024 185.454 375.796Z" fill="#EF9F00"/>
<path fill-rule="evenodd" clip-rule="evenodd" d="M337.6 177.532C341.572 181.86 342.406 188.213 339.687 193.42L292.647 283.477L355.859 268.881L362.135 296.06L269.389 317.477C264.083 318.702 258.549 316.727 255.218 312.419C251.886 308.11 251.367 302.257 253.889 297.43L294.609 219.469C252.829 244.594 213.526 278.699 195.779 296.247L176.167 276.411C200.126 252.721 262.878 198.765 321.948 174.093C327.369 171.829 333.627 173.204 337.6 177.532Z" fill="#EF9F00"/>
<path fill-rule="evenodd" clip-rule="evenodd" d="M509.613 97.9527C512.836 102.152 513.403 107.815 511.078 112.57L419.132 300.599L550.124 288.81L552.624 316.592L396.979 330.6C391.964 331.051 387.095 328.765 384.24 324.617C381.385 320.47 380.987 315.105 383.199 310.582L473.11 126.715C416.997 142.06 378.037 166.148 365.054 176.834L347.327 155.296C366.05 139.886 420.304 107.526 495.873 92.7551C501.068 91.7396 506.391 93.7529 509.613 97.9527Z" fill="#EF9F00"/>
<path fill-rule="evenodd" clip-rule="evenodd" d="M554.711 75.327C560.056 72.6513 566.511 73.6787 570.762 77.8816L765.151 270.108L745.537 289.943L653.238 198.671L591.53 207.196L604.471 300.869L576.839 304.687L547.138 89.7076C546.32 83.7867 549.366 78.0027 554.711 75.327ZM587.712 179.564L628.252 173.963L580.401 126.644L587.712 179.564Z" fill="#EF9F00"/>
<path fill-rule="evenodd" clip-rule="evenodd" d="M659.026 63.6666C661.242 60.1146 664.935 57.7455 669.087 57.2132C721.178 50.5355 850.302 44.2488 949.753 73.5722C955.883 75.3798 960 81.1227 959.744 87.5088C959.488 93.8949 954.925 99.2898 948.669 100.601L860.26 119.132C865.11 122.622 869.853 126.382 874.365 130.397C888.678 143.132 901.516 159.182 907.35 178.092C913.366 197.593 911.531 218.934 898.44 240.451C885.668 261.443 862.567 282.037 827.078 302.121L813.339 277.844C846.642 258.997 865.264 241.312 874.609 225.952C883.634 211.117 884.31 198.034 880.695 186.315C876.897 174.004 867.961 162.037 855.823 151.237C845.024 141.628 832.347 133.534 820.33 127.501L712.497 150.103L721.908 177.756L695.501 186.743L657.657 75.5408C656.308 71.5778 656.811 67.2186 659.026 63.6666ZM703.444 123.5L878.41 86.8264C808.059 76.5851 733.802 78.8685 689.666 83.0142L703.444 123.5Z" fill="#EF9F00"/>
<path fill-rule="evenodd" clip-rule="evenodd" d="M1056.34 132.3C1081.35 156.539 1082.14 197.519 1060.75 237.093C1042.49 270.864 1020.22 292.141 996.387 304.004C972.592 315.849 948.321 317.772 926.922 314.652C919.389 313.554 914.133 306.619 915.119 299.079L935.462 143.512C936.036 139.125 938.664 135.272 942.541 133.133C988.871 107.573 1031.16 107.899 1056.34 132.3ZM962.16 154.259C1000.15 135.212 1025.19 140.888 1036.94 152.275C1049.48 164.427 1054.4 190.245 1036.22 223.87C1020.2 253.513 1001.78 270.219 983.956 279.094C970.848 285.619 957.473 288.202 944.652 288.149L962.16 154.259Z" fill="#EF9F00"/>
<path fill-rule="evenodd" clip-rule="evenodd" d="M1131.11 244.4C1142.94 251.214 1162.46 247.625 1172.99 229.351C1183.52 211.077 1176.83 192.387 1165 185.573C1153.17 178.759 1133.65 182.348 1123.12 200.622C1112.59 218.896 1119.28 237.586 1131.11 244.4ZM1117.19 268.57C1144.3 284.194 1180.11 272.869 1197.16 243.276C1214.21 213.683 1206.05 177.027 1178.93 161.403C1151.81 145.779 1116 157.103 1098.95 186.697C1081.9 216.29 1090.07 252.946 1117.19 268.57Z" fill="#EF9F00"/>
<path fill-rule="evenodd" clip-rule="evenodd" d="M1262.98 281.452C1248.95 302.053 1221.04 316.045 1175.05 319.723C1162.02 320.765 1154.51 324.223 1150.58 327.601C1147.06 330.633 1145.61 334.226 1145.82 338.723C1146.3 349.116 1156.35 366.186 1181 380.744C1200.43 392.223 1224.68 396.323 1245.79 386.865C1266.52 377.576 1288.14 353.419 1298.74 300.059L1326 305.496C1314.36 364.103 1288.95 398.037 1257.13 412.292C1225.69 426.379 1191.83 419.477 1166.88 404.739C1138.72 388.102 1119.17 364.09 1118.05 340.015C1117.46 327.278 1122.21 315.291 1132.49 306.46C1142.36 297.974 1156.25 293.285 1172.83 291.959C1215.07 288.582 1232.84 276.3 1240.02 265.752C1247.18 255.235 1246.55 242.385 1242.6 231.499L1268.72 221.98C1274.41 237.647 1277.03 260.82 1262.98 281.452Z" fill="#EF9F00"/>
<path fill-rule="evenodd" clip-rule="evenodd" d="M44.973 480.223C37.8458 492.169 31.1319 504.225 24.8147 516.37L0 503.553C12.9142 478.726 27.4319 454.237 43.6861 430.275L55.2643 438.074L43.6862 430.275C59.7962 406.526 79.0792 381.931 100.747 360.98L120.211 380.968C101.318 399.237 84.0506 420.886 69.1587 442.485C69.0476 462.803 73.0008 482.34 79.449 498.479C86.4417 515.981 95.7567 528.028 104.453 533.592C108.623 536.261 112.259 537.209 115.359 537.124C118.373 537.041 122.055 535.955 126.401 532.518C135.647 525.208 146.743 508.082 156.066 474.577L183 482.018C173.158 517.389 160.014 541.496 143.773 554.336C135.376 560.975 126.003 564.693 116.129 564.964C106.341 565.233 97.2558 562.086 89.3509 557.028C73.8968 547.139 61.6442 529.212 53.4813 508.781C49.9417 499.922 47.0554 490.314 44.973 480.223Z" fill="#EF9F00"/>
<path fill-rule="evenodd" clip-rule="evenodd" d="M1391.82 382.313C1376.6 371.126 1363.67 373.38 1359.78 376.741C1356.93 379.198 1354.95 382.946 1356.92 390.575C1359.12 399.044 1366.18 411.219 1381.46 426.366C1418.2 462.769 1412.8 510.926 1386.95 528.677C1375.35 536.639 1361.54 539.049 1345.96 535.15C1331.06 531.418 1314.73 521.995 1296.4 507.007C1282.74 495.847 1273.59 484.748 1269.13 473.51C1264.43 461.699 1265.2 450.363 1270.25 440.694C1275.01 431.586 1282.92 425.138 1290.63 420.797C1298.45 416.397 1307.12 413.559 1314.94 412.198L1319.69 439.751C1314.65 440.628 1309.03 442.497 1304.23 445.195C1299.33 447.951 1296.3 450.993 1294.89 453.687C1293.78 455.82 1293.17 458.599 1294.97 463.138C1297 468.249 1302.24 475.735 1313.96 485.316C1330.86 499.13 1343.46 505.706 1352.69 508.017C1361.25 510.161 1366.78 508.656 1371.24 505.59C1378.79 500.412 1389.75 473.852 1361.92 446.276C1344.92 429.433 1333.98 413.001 1329.99 397.617C1325.79 381.393 1329.46 366.043 1341.64 355.529C1359.45 340.156 1387.71 344.647 1408.25 359.744C1430.16 375.844 1447 405.456 1447 448.064H1419.17C1419.17 413.218 1405.68 392.499 1391.82 382.313Z" fill="#EF9F00"/>
<path fill-rule="evenodd" clip-rule="evenodd" d="M828 375.98H956.047V403.853H905.972V506.98H878.075V403.853H828V375.98ZM975.017 389.917L988.966 375.98H1088V403.853H1002.91V427.544H1088V455.417H1002.91V479.108H1088V506.98H988.966L975.017 493.044V389.917Z" fill="#EF9F00"/>
<path fill-rule="evenodd" clip-rule="evenodd" d="M563 389.917L576.951 375.98H662.049L676 389.917V506.98H648.099V455.417H590.901V506.98H563V389.917ZM590.901 427.544H648.099V403.853H590.901V427.544Z" fill="#EF9F00"/>
<path fill-rule="evenodd" clip-rule="evenodd" d="M431.968 375.98V464.004L463.526 431.895H483.474L515.032 464.004V375.98H543V498.181L519.042 507.98L473.5 461.643L427.958 507.98L404 498.181V375.98H431.968Z" fill="#EF9F00"/>
<path fill-rule="evenodd" clip-rule="evenodd" d="M695 389.917L708.951 375.98H808V403.853H722.901V427.544H794.049L808 441.48V493.044L794.049 506.98H695V479.108H780.099V455.417H708.951L695 441.48V389.917Z" fill="#EF9F00"/>
</svg>
