<svg width="348" height="348" viewBox="0 0 348 348" fill="none" xmlns="http://www.w3.org/2000/svg">
<path fill-rule="evenodd" clip-rule="evenodd" d="M0 0H348V348H0V0ZM32 32V316H316V32H32Z" fill="black"/>
<path fill-rule="evenodd" clip-rule="evenodd" d="M316 32H32V316H316V32ZM145.502 119.161C141.016 116.479 135.303 116.279 130.612 118.642C125.92 121.004 123 125.551 123 130.493V216.507C123 221.391 125.852 225.893 130.458 228.28C135.064 230.666 140.703 230.563 145.204 228.012L219.036 186.153C223.309 183.731 225.939 179.448 225.999 174.812C226.059 170.175 223.542 165.835 219.333 163.318L145.502 119.161Z" fill="#EF9F00"/>
<path fill-rule="evenodd" clip-rule="evenodd" d="M130.612 118.642C135.303 116.279 141.016 116.479 145.502 119.161L219.334 163.318C223.542 165.835 226.059 170.175 225.999 174.812C225.939 179.448 223.309 183.731 219.036 186.153L145.204 228.012C140.703 230.563 135.064 230.666 130.458 228.28C125.852 225.893 123 221.391 123 216.507V130.493C123 125.551 125.92 121.004 130.612 118.642Z" fill="#FFB800"/>
</svg>
