<svg width="256" height="257" viewBox="0 0 256 257" fill="none" xmlns="http://www.w3.org/2000/svg">
<path d="M249.84 129.203C249.84 163.401 228.078 193.51 195.089 211.051C175.85 221.282 152.792 227.237 128.006 227.237C103.22 227.237 80.1624 221.282 60.9233 211.051C27.9341 193.51 6.17188 163.401 6.17188 129.203C6.17188 95.004 27.9341 64.8953 60.9233 47.3538C80.1624 37.1237 103.22 31.168 128.006 31.168C152.792 31.168 175.85 37.1237 195.089 47.3538C228.078 64.8953 249.84 95.004 249.84 129.203Z" fill="#FFB800"/>
<path fill-rule="evenodd" clip-rule="evenodd" d="M128 37.3431C104.193 37.3431 82.1338 43.0648 63.8119 52.8072C32.3167 69.5543 12.3314 97.8264 12.3314 129.212C12.3314 160.598 32.3167 188.87 63.8119 205.617C82.1338 215.359 104.193 221.081 128 221.081C151.807 221.081 173.866 215.359 192.188 205.617C223.683 188.87 243.669 160.598 243.669 129.212C243.669 97.8264 223.683 69.5543 192.188 52.8072C173.866 43.0648 151.807 37.3431 128 37.3431ZM58.0224 41.9193C78.1787 31.2016 102.234 25.0117 128 25.0117C153.766 25.0117 177.821 31.2016 197.978 41.9193C232.461 60.2553 256 92.2005 256 129.212C256 166.224 232.461 198.169 197.978 216.505C177.821 227.223 153.766 233.412 128 233.412C102.234 233.412 78.1787 227.223 58.0224 216.505C23.5392 198.169 0 166.224 0 129.212C0 92.2005 23.5392 60.2553 58.0224 41.9193Z" fill="black"/>
<path fill-rule="evenodd" clip-rule="evenodd" d="M177.701 189.702C202.143 176.716 218.266 154.429 218.266 129.113C218.266 103.798 202.143 81.5096 177.701 68.5245C163.447 60.9517 146.364 56.543 128 56.543C109.636 56.543 92.5533 60.9517 78.2992 68.5245C53.8578 81.5096 37.7344 103.798 37.7344 129.113C37.7344 154.429 53.8578 176.716 78.2992 189.702C92.5533 197.274 109.513 201.683 127.877 201.683C146.241 201.683 163.447 197.274 177.701 189.702ZM175.957 89.1594C165.652 69.5103 147.966 56.5481 127.877 56.5481C107.788 56.5481 90.1014 69.5103 79.7972 89.1594C73.7878 100.619 70.2893 114.352 70.2893 129.116C70.2893 143.879 73.7878 157.612 79.7972 169.072C90.1014 188.721 107.788 201.683 127.877 201.683C147.966 201.683 165.652 188.721 175.957 169.072C181.966 157.612 185.465 143.879 185.465 129.116C185.465 114.352 181.966 100.619 175.957 89.1594Z" fill="black"/>
<path fill-rule="evenodd" clip-rule="evenodd" d="M83.1437 72.9696C82.4847 73.2991 81.832 73.6356 81.1858 73.9789C58.2373 86.1709 43.8939 106.623 43.8939 129.122C43.8939 151.622 58.2373 172.074 81.1858 184.266C81.8302 184.608 82.4806 184.944 83.1371 185.272C79.8046 181.224 76.8495 176.748 74.3306 171.945C67.8431 159.574 64.1174 144.853 64.1174 129.125C64.1174 113.397 67.8431 98.6764 74.3306 86.3054C76.8511 81.4989 79.8085 77.0205 83.1437 72.9696ZM172.426 72.7617C175.832 76.8671 178.847 81.4166 181.411 86.3054C187.899 98.6764 191.624 113.397 191.624 129.125C191.624 144.853 187.899 159.574 181.411 171.945C178.849 176.83 175.836 181.376 172.434 185.479C173.233 185.085 174.023 184.68 174.802 184.266C197.751 172.074 212.094 151.622 212.094 129.122C212.094 106.623 197.751 86.1709 174.802 73.9789C174.02 73.5631 173.227 73.1573 172.426 72.7617ZM127.875 207.858C147.209 207.858 165.412 203.219 180.588 195.156C206.522 181.378 224.426 157.254 224.426 129.122C224.426 100.991 206.522 76.8672 180.588 63.089C165.417 55.0291 147.337 50.3867 127.994 50.3867C108.651 50.3867 90.5712 55.0291 75.4003 63.089C49.466 76.8672 31.5625 100.991 31.5625 129.122C31.5625 157.254 49.466 181.378 75.4003 195.156C90.5649 203.213 108.521 207.858 127.871 207.858C127.872 207.858 127.874 207.858 127.875 207.858ZM127.871 195.527C145.102 195.527 160.96 184.392 170.49 166.218C176.021 155.67 179.293 142.923 179.293 129.125C179.293 115.327 176.021 102.58 170.49 92.0324C160.96 73.8585 145.102 62.7233 127.871 62.7233C110.64 62.7233 94.782 73.8585 85.2514 92.0324C79.7202 102.58 76.4488 115.327 76.4488 129.125C76.4488 142.923 79.7203 155.67 85.2515 166.218C94.782 184.392 110.64 195.527 127.871 195.527Z" fill="black"/>
</svg>
