<svg width="300" height="300" viewBox="0 0 300 300" fill="none" xmlns="http://www.w3.org/2000/svg">
<path d="M292.782 150.252C292.782 190.328 267.279 225.612 228.62 246.168C206.074 258.157 179.053 265.136 150.007 265.136C120.961 265.136 93.9401 258.157 71.3943 246.168C32.7351 225.612 7.23242 190.328 7.23242 150.252C7.23242 110.175 32.7351 74.8914 71.3943 54.335C93.9401 42.3466 120.961 35.3672 150.007 35.3672C179.053 35.3672 206.074 42.3466 228.62 54.335C267.279 74.8914 292.782 110.175 292.782 150.252Z" fill="#FFB800"/>
<path fill-rule="evenodd" clip-rule="evenodd" d="M150 42.6032C122.102 42.6032 96.2505 49.3083 74.7795 60.7252C37.8712 80.3506 14.4509 113.482 14.4509 150.262C14.4509 187.042 37.8712 220.174 74.7795 239.799C96.2505 251.216 122.102 257.921 150 257.921C177.898 257.921 203.75 251.216 225.22 239.799C262.129 220.174 285.549 187.042 285.549 150.262C285.549 113.482 262.129 80.3506 225.22 60.7252C203.75 49.3083 177.898 42.6032 150 42.6032ZM67.995 47.966C91.6157 35.4061 119.806 28.1523 150 28.1523C180.194 28.1523 208.384 35.4061 232.005 47.966C272.415 69.4534 300 106.889 300 150.262C300 193.635 272.415 231.071 232.005 252.558C208.384 265.118 180.194 272.372 150 272.372C119.806 272.372 91.6157 265.118 67.995 252.558C27.585 231.071 0 193.635 0 150.262C0 106.889 27.585 69.4534 67.995 47.966Z" fill="black"/>
<path fill-rule="evenodd" clip-rule="evenodd" d="M208.244 221.147C236.886 205.93 255.78 179.811 255.78 150.145C255.78 120.478 236.886 94.3593 208.244 79.1424C191.54 70.268 171.52 65.1016 150 65.1016C128.48 65.1016 108.461 70.268 91.7566 79.1424C63.1144 94.3593 44.2197 120.478 44.2197 150.145C44.2197 179.811 63.1144 205.93 91.7566 221.147C108.461 230.021 128.335 235.188 149.856 235.188C171.376 235.188 191.54 230.021 208.244 221.147ZM206.199 103.324C194.124 80.2976 173.397 65.1076 149.856 65.1076C126.314 65.1076 105.587 80.2976 93.5121 103.324C86.4699 116.753 82.37 132.847 82.37 150.148C82.37 167.448 86.4699 183.542 93.5121 196.971C105.587 219.998 126.314 235.188 149.856 235.188C173.397 235.188 194.124 219.998 206.199 196.971C213.241 183.542 217.341 167.448 217.341 150.148C217.341 132.847 213.241 116.753 206.199 103.324Z" fill="black"/>
<path fill-rule="evenodd" clip-rule="evenodd" d="M97.434 84.351C96.6618 84.7372 95.8969 85.1315 95.1396 85.5338C68.2469 99.8213 51.4382 123.788 51.4382 150.155C51.4382 176.522 68.2469 200.489 95.1396 214.777C95.8947 215.178 96.657 215.571 97.4263 215.956C93.521 211.211 90.058 205.966 87.1062 200.337C79.5036 185.84 75.1376 168.59 75.1376 150.158C75.1376 131.727 79.5036 114.476 87.1062 99.9789C90.0599 94.3464 93.5256 89.0982 97.434 84.351ZM202.062 84.1075C206.053 88.9184 209.587 94.2498 212.591 99.9789C220.194 114.476 224.56 131.727 224.56 150.158C224.56 168.59 220.194 185.84 212.591 200.337C209.589 206.062 206.058 211.39 202.071 216.198C203.008 215.736 203.933 215.262 204.847 214.777C231.739 200.489 248.548 176.522 248.548 150.155C248.548 123.788 231.739 99.8213 204.847 85.5338C203.929 85.0465 203.001 84.571 202.062 84.1075ZM149.854 242.424C172.51 242.423 193.842 236.987 211.626 227.538C242.018 211.392 262.999 183.122 262.999 150.155C262.999 117.189 242.018 88.9185 211.626 72.7722C193.848 63.327 172.66 57.8867 149.993 57.8867C127.326 57.8867 106.138 63.327 88.3597 72.7722C57.9679 88.9185 36.9873 117.189 36.9873 150.155C36.9873 183.122 57.9679 211.392 88.3597 227.538C106.131 236.979 127.173 242.424 149.849 242.424C149.85 242.424 149.852 242.424 149.854 242.424ZM149.849 227.973C170.041 227.973 188.624 214.924 199.793 193.626C206.275 181.266 210.109 166.328 210.109 150.158C210.109 133.988 206.275 119.051 199.793 106.69C188.624 85.3927 170.041 72.3436 149.849 72.3436C129.656 72.3436 111.073 85.3927 99.904 106.69C93.4222 119.051 89.5885 133.988 89.5885 150.158C89.5885 166.328 93.4222 181.266 99.904 193.626C111.073 214.924 129.656 227.973 149.849 227.973Z" fill="black"/>
</svg>
