<svg width="16" height="17" viewBox="0 0 16 17" fill="none" xmlns="http://www.w3.org/2000/svg">
<path d="M15.615 8.50022C15.615 10.6376 14.2549 12.5194 12.1931 13.6158C10.9906 14.2551 9.54953 14.6274 8.00039 14.6274C6.45124 14.6274 5.01015 14.2551 3.80771 13.6158C1.74588 12.5194 0.385742 10.6376 0.385742 8.50022C0.385742 6.3628 1.74588 4.48101 3.80771 3.38466C5.01015 2.74528 6.45124 2.37305 8.00039 2.37305C9.54953 2.37305 10.9906 2.74528 12.1931 3.38466C14.2549 4.48101 15.615 6.3628 15.615 8.50022Z" fill="#FFB800"/>
<path fill-rule="evenodd" clip-rule="evenodd" d="M8 2.75899C6.51209 2.75899 5.13336 3.1166 3.98824 3.7255C2.0198 4.77219 0.770713 6.5392 0.770713 8.50081C0.770713 10.4624 2.0198 12.2294 3.98824 13.2761C5.13336 13.885 6.51209 14.2426 8 14.2426C9.48791 14.2426 10.8666 13.885 12.0118 13.2761C13.9802 12.2294 15.2293 10.4624 15.2293 8.50081C15.2293 6.5392 13.9802 4.77219 12.0118 3.7255C10.8666 3.1166 9.48791 2.75899 8 2.75899ZM3.6264 3.04501C4.88617 2.37515 6.38963 1.98828 8 1.98828C9.61037 1.98828 11.1138 2.37515 12.3736 3.04501C14.5288 4.191 16 6.18758 16 8.50081C16 10.814 14.5288 12.8106 12.3736 13.9566C11.1138 14.6265 9.61037 15.0133 8 15.0133C6.38963 15.0133 4.88617 14.6265 3.6264 13.9566C1.4712 12.8106 0 10.814 0 8.50081C0 6.18758 1.4712 4.191 3.6264 3.04501Z" fill="black"/>
<path fill-rule="evenodd" clip-rule="evenodd" d="M11.1063 12.2814C12.6339 11.4698 13.6416 10.0768 13.6416 8.49461C13.6416 6.91239 12.6339 5.5194 11.1063 4.70783C10.2155 4.23453 9.14776 3.95898 8.00002 3.95898C6.85227 3.95898 5.78458 4.23453 4.8937 4.70783C3.36611 5.5194 2.3584 6.91239 2.3584 8.49461C2.3584 10.0768 3.36611 11.4698 4.8937 12.2814C5.78458 12.7547 6.84456 13.0302 7.99231 13.0302C9.14005 13.0302 10.2155 12.7547 11.1063 12.2814ZM10.9973 5.99751C10.3533 4.76944 9.24787 3.95931 7.99231 3.95931C6.73675 3.95931 5.63134 4.76944 4.98732 5.99751C4.61174 6.71372 4.39308 7.57207 4.39308 8.49477C4.39308 9.41748 4.61174 10.2758 4.98733 10.992C5.63134 12.2201 6.73675 13.0302 7.99231 13.0302C9.24787 13.0302 10.3533 12.2201 10.9973 10.992C11.3729 10.2758 11.5915 9.41748 11.5915 8.49477C11.5915 7.57207 11.3729 6.71372 10.9973 5.99751Z" fill="black"/>
<path fill-rule="evenodd" clip-rule="evenodd" d="M5.19648 4.98565C5.15529 5.00624 5.1145 5.02727 5.07411 5.04873C3.63983 5.81073 2.74337 7.08897 2.74337 8.4952C2.74337 9.90144 3.63983 11.1797 5.07411 11.9417C5.11439 11.9631 5.15504 11.984 5.19607 12.0046C4.98779 11.7515 4.80309 11.4718 4.64566 11.1716C4.24019 10.3984 4.00734 9.47838 4.00734 8.49536C4.00734 7.51235 4.24019 6.59233 4.64566 5.81913C4.8032 5.51873 4.98803 5.23883 5.19648 4.98565ZM10.7766 4.97266C10.9895 5.22924 11.178 5.51359 11.3382 5.81913C11.7437 6.59233 11.9765 7.51235 11.9765 8.49536C11.9765 9.47838 11.7437 10.3984 11.3382 11.1716C11.1781 11.4769 10.9898 11.761 10.7771 12.0175C10.8271 11.9928 10.8764 11.9676 10.9251 11.9417C12.3594 11.1797 13.2559 9.90144 13.2559 8.4952C13.2559 7.08897 12.3594 5.81073 10.9251 5.04873C10.8762 5.02274 10.8267 4.99738 10.7766 4.97266ZM7.99219 13.4162C9.20055 13.4161 10.3382 13.1262 11.2867 12.6223C12.9076 11.7612 14.0266 10.2534 14.0266 8.4952C14.0266 6.737 12.9076 5.22925 11.2867 4.36811C10.3386 3.86437 9.20855 3.57422 7.99963 3.57422C6.79072 3.57422 5.6607 3.86437 4.71252 4.36811C3.09162 5.22925 1.97266 6.737 1.97266 8.4952C1.97266 10.2534 3.09162 11.7612 4.71252 12.6223C5.6603 13.1258 6.78255 13.4162 7.99192 13.4162C7.99201 13.4162 7.9921 13.4162 7.99219 13.4162ZM7.99192 12.6455C9.06887 12.6455 10.06 11.9495 10.6556 10.8137C11.0013 10.1544 11.2058 9.35776 11.2058 8.49536C11.2058 7.63296 11.0013 6.83629 10.6556 6.17707C10.06 5.04121 9.06887 4.34525 7.99192 4.34525C6.91498 4.34525 5.92388 5.04121 5.32822 6.17707C4.98252 6.83629 4.77805 7.63296 4.77805 8.49536C4.77805 9.35776 4.98252 10.1544 5.32822 10.8137C5.92388 11.9495 6.91498 12.6455 7.99192 12.6455Z" fill="black"/>
</svg>
